<svg width="40" height="41" viewBox="0 0 40 41" fill="none" xmlns="http://www.w3.org/2000/svg">
<rect y="0.912109" width="40" height="40" rx="20" fill="#EB5757"/>
<path d="M19.29 12.814L21.31 18.521L21.705 19.637L21.712 14.827L21.722 10.009H25.992L26 20.871C26.003 26.851 25.997 31.761 25.985 31.771C25.973 31.78 25.776 31.771 25.549 31.744C24.56 31.626 23.259 31.508 22.209 31.462C21.9967 31.454 21.7847 31.4413 21.573 31.424C21.57 31.42 21.3 30.662 20.797 29.24V29.236L18.653 23.175L18.313 22.221L18.305 26.807C18.299 31.172 18.295 31.417 18.248 31.417C18.085 31.417 16.678 31.507 16.208 31.553C15.9 31.58 15.282 31.643 14.838 31.698C14.392 31.749 14.022 31.783 14.015 31.776C14.006 31.77 14 26.867 14 20.883V10.002H14.005V10H18.293L18.321 10.08C18.328 10.096 18.386 10.256 18.478 10.517L19.119 12.295L19.292 12.791L19.291 12.814H19.29Z" fill="white"/>
</svg>
