<svg width="40" height="41" viewBox="0 0 40 41" fill="none" xmlns="http://www.w3.org/2000/svg">
<rect y="0.912109" width="40" height="40" rx="20" fill="#2D9CDB"/>
<path d="M9.173 17.301C8.892 16.888 8.921 16.888 9.501 16.379C10.733 15.297 11.895 14.113 13.237 13.167C14.452 12.315 16.063 11.765 17.164 13.12C18.178 14.369 18.202 16.262 18.459 17.77C18.716 19.334 18.962 20.934 19.51 22.43C19.662 22.851 19.953 23.647 20.478 23.714C21.156 23.807 21.846 22.618 22.161 22.174C22.978 20.994 24.086 19.405 23.946 17.888C23.808 16.276 22.068 16.579 20.98 16.964C21.155 15.155 22.838 13.121 24.46 12.434C26.18 11.72 28.736 11.732 29.6 13.671C30.523 15.773 29.693 18.214 28.688 20.119C27.591 22.187 26.179 24.101 24.67 25.889C23.339 27.477 21.764 29.219 19.78 29.978C17.513 30.842 16.17 29.158 15.398 27.208C14.555 25.085 14.136 22.702 13.528 20.491C13.272 19.557 12.968 18.494 12.361 17.723C11.569 16.728 10.669 17.663 9.887 18.2C9.618 17.933 9.396 17.593 9.173 17.301Z" fill="white"/>
</svg>
