<svg width="125" height="218" viewBox="0 0 125 218" fill="none" xmlns="http://www.w3.org/2000/svg">
<path d="M5.04154 191.077C7.3448 191.077 9.21199 189.21 9.21199 186.907C9.21199 184.604 7.3448 182.736 5.04154 182.736C2.73828 182.736 0.871094 184.604 0.871094 186.907C0.871094 189.21 2.73828 191.077 5.04154 191.077Z" fill="#7BC678"/>
<path d="M5.04154 86.6851C7.3448 86.6851 9.21199 84.8179 9.21199 82.5146C9.21199 80.2113 7.3448 78.3442 5.04154 78.3442C2.73828 78.3442 0.871094 80.2113 0.871094 82.5146C0.871094 84.8179 2.73828 86.6851 5.04154 86.6851Z" fill="#7BC678"/>
<path d="M33.7713 217.226C36.0746 217.226 37.9418 215.358 37.9418 213.055C37.9418 210.752 36.0746 208.885 33.7713 208.885C31.4681 208.885 29.6009 210.752 29.6009 213.055C29.6009 215.358 31.4681 217.226 33.7713 217.226Z" fill="#7BC678"/>
<path d="M33.7713 191.077C36.0746 191.077 37.9418 189.21 37.9418 186.907C37.9418 184.604 36.0746 182.736 33.7713 182.736C31.4681 182.736 29.6009 184.604 29.6009 186.907C29.6009 189.21 31.4681 191.077 33.7713 191.077Z" fill="#7BC678"/>
<path d="M33.7713 138.914C36.0746 138.914 37.9418 137.047 37.9418 134.744C37.9418 132.441 36.0746 130.573 33.7713 130.573C31.4681 130.573 29.6009 132.441 29.6009 134.744C29.6009 137.047 31.4681 138.914 33.7713 138.914Z" fill="#7BC678"/>
<path d="M33.7713 60.6033C36.0746 60.6033 37.9418 58.7361 37.9418 56.4328C37.9418 54.1296 36.0746 52.2625 33.7713 52.2625C31.4681 52.2625 29.6009 54.1296 29.6009 56.4328C29.6009 58.7361 31.4681 60.6033 33.7713 60.6033Z" fill="#7BC678"/>
<path d="M33.7713 34.5212C36.0746 34.5212 37.9418 32.6541 37.9418 30.3509C37.9418 28.0476 36.0746 26.1804 33.7713 26.1804C31.4681 26.1804 29.6009 28.0476 29.6009 30.3509C29.6009 32.6541 31.4681 34.5212 33.7713 34.5212Z" fill="#7BC678"/>
<path d="M62.4346 191.077C64.7378 191.077 66.605 189.21 66.605 186.907C66.605 184.604 64.7378 182.736 62.4346 182.736C60.1313 182.736 58.2641 184.604 58.2641 186.907C58.2641 189.21 60.1313 191.077 62.4346 191.077Z" fill="#7BC678"/>
<path d="M62.4346 164.995C64.7378 164.995 66.605 163.128 66.605 160.825C66.605 158.521 64.7378 156.654 62.4346 156.654C60.1313 156.654 58.2641 158.521 58.2641 160.825C58.2641 163.128 60.1313 164.995 62.4346 164.995Z" fill="#7BC678"/>
<path d="M62.4346 112.833C64.7378 112.833 66.605 110.965 66.605 108.662C66.605 106.359 64.7378 104.492 62.4346 104.492C60.1313 104.492 58.2641 106.359 58.2641 108.662C58.2641 110.965 60.1313 112.833 62.4346 112.833Z" fill="#7BC678"/>
<path d="M62.4346 86.6851C64.7378 86.6851 66.605 84.8179 66.605 82.5146C66.605 80.2113 64.7378 78.3442 62.4346 78.3442C60.1313 78.3442 58.2641 80.2113 58.2641 82.5146C58.2641 84.8179 60.1313 86.6851 62.4346 86.6851Z" fill="#7BC678"/>
<path d="M62.4346 34.5212C64.7378 34.5212 66.605 32.6541 66.605 30.3509C66.605 28.0476 64.7378 26.1804 62.4346 26.1804C60.1313 26.1804 58.2641 28.0476 58.2641 30.3509C58.2641 32.6541 60.1313 34.5212 62.4346 34.5212Z" fill="#7BC678"/>
<path d="M91.1642 217.226C93.4674 217.226 95.3346 215.358 95.3346 213.055C95.3346 210.752 93.4674 208.885 91.1642 208.885C88.8609 208.885 86.9939 210.752 86.9939 213.055C86.9939 215.358 88.8609 217.226 91.1642 217.226Z" fill="#7BC678"/>
<path d="M91.1642 191.077C93.4674 191.077 95.3346 189.21 95.3346 186.907C95.3346 184.604 93.4674 182.736 91.1642 182.736C88.8609 182.736 86.9939 184.604 86.9939 186.907C86.9939 189.21 88.8609 191.077 91.1642 191.077Z" fill="#7BC678"/>
<path d="M91.1642 164.995C93.4674 164.995 95.3346 163.128 95.3346 160.825C95.3346 158.521 93.4674 156.654 91.1642 156.654C88.8609 156.654 86.9939 158.521 86.9939 160.825C86.9939 163.128 88.8609 164.995 91.1642 164.995Z" fill="#7BC678"/>
<path d="M91.1642 138.914C93.4674 138.914 95.3346 137.047 95.3346 134.744C95.3346 132.441 93.4674 130.573 91.1642 130.573C88.8609 130.573 86.9939 132.441 86.9939 134.744C86.9939 137.047 88.8609 138.914 91.1642 138.914Z" fill="#7BC678"/>
<path d="M91.1642 86.6851C93.4674 86.6851 95.3346 84.8179 95.3346 82.5146C95.3346 80.2113 93.4674 78.3442 91.1642 78.3442C88.8609 78.3442 86.9939 80.2113 86.9939 82.5146C86.9939 84.8179 88.8609 86.6851 91.1642 86.6851Z" fill="#7BC678"/>
<path d="M91.1642 60.6033C93.4674 60.6033 95.3346 58.7361 95.3346 56.4328C95.3346 54.1296 93.4674 52.2625 91.1642 52.2625C88.8609 52.2625 86.9939 54.1296 86.9939 56.4328C86.9939 58.7361 88.8609 60.6033 91.1642 60.6033Z" fill="#7BC678"/>
<path d="M91.1642 8.43945C93.4674 8.43945 95.3346 6.57234 95.3346 4.26908C95.3346 1.96582 93.4674 0.0986328 91.1642 0.0986328C88.8609 0.0986328 86.9939 1.96582 86.9939 4.26908C86.9939 6.57234 88.8609 8.43945 91.1642 8.43945Z" fill="#7BC678"/>
<path d="M119.893 191.077C122.196 191.077 124.063 189.21 124.063 186.907C124.063 184.604 122.196 182.736 119.893 182.736C117.59 182.736 115.723 184.604 115.723 186.907C115.723 189.21 117.59 191.077 119.893 191.077Z" fill="#7BC678"/>
<path d="M119.893 138.914C122.196 138.914 124.063 137.047 124.063 134.744C124.063 132.441 122.196 130.573 119.893 130.573C117.59 130.573 115.723 132.441 115.723 134.744C115.723 137.047 117.59 138.914 119.893 138.914Z" fill="#7BC678"/>
<path d="M119.893 86.6851C122.196 86.6851 124.063 84.8179 124.063 82.5146C124.063 80.2113 122.196 78.3442 119.893 78.3442C117.59 78.3442 115.723 80.2113 115.723 82.5146C115.723 84.8179 117.59 86.6851 119.893 86.6851Z" fill="#7BC678"/>
</svg>
