<svg width="117" height="137" viewBox="0 0 117 137" fill="none" xmlns="http://www.w3.org/2000/svg">
<path d="M4.26465 82.7356C6.44627 82.7356 8.21485 80.9671 8.21485 78.7855C8.21485 76.6038 6.44627 74.8353 4.26465 74.8353C2.08303 74.8353 0.314453 76.6038 0.314453 78.7855C0.314453 80.9671 2.08303 82.7356 4.26465 82.7356Z" fill="#7BC678"/>
<path d="M31.477 132.206C33.6586 132.206 35.4272 130.437 35.4272 128.256C35.4272 126.074 33.6586 124.305 31.477 124.305C29.2954 124.305 27.5268 126.074 27.5268 128.256C27.5268 130.437 29.2954 132.206 31.477 132.206Z" fill="#7BC678"/>
<path d="M31.477 58.0314C33.6586 58.0314 35.4272 56.2628 35.4272 54.0812C35.4272 51.8996 33.6586 50.1311 31.477 50.1311C29.2954 50.1311 27.5268 51.8996 27.5268 54.0812C27.5268 56.2628 29.2954 58.0314 31.477 58.0314Z" fill="#7BC678"/>
<path d="M31.477 33.3262C33.6586 33.3262 35.4272 31.5577 35.4272 29.3761C35.4272 27.1945 33.6586 25.4259 31.477 25.4259C29.2954 25.4259 27.5268 27.1945 27.5268 29.3761C27.5268 31.5577 29.2954 33.3262 31.477 33.3262Z" fill="#7BC678"/>
<path d="M58.6267 107.502C60.8083 107.502 62.5769 105.733 62.5769 103.551C62.5769 101.37 60.8083 99.6012 58.6267 99.6012C56.445 99.6012 54.6765 101.37 54.6765 103.551C54.6765 105.733 56.445 107.502 58.6267 107.502Z" fill="#7BC678"/>
<path d="M58.6267 82.7356C60.8083 82.7356 62.5769 80.9671 62.5769 78.7855C62.5769 76.6038 60.8083 74.8353 58.6267 74.8353C56.445 74.8353 54.6765 76.6038 54.6765 78.7855C54.6765 80.9671 56.445 82.7356 58.6267 82.7356Z" fill="#7BC678"/>
<path d="M58.6267 33.3262C60.8083 33.3262 62.5769 31.5577 62.5769 29.3761C62.5769 27.1945 60.8083 25.4259 58.6267 25.4259C56.445 25.4259 54.6765 27.1945 54.6765 29.3761C54.6765 31.5577 56.445 33.3262 58.6267 33.3262Z" fill="#7BC678"/>
<path d="M85.8398 132.206C88.0214 132.206 89.79 130.437 89.79 128.256C89.79 126.074 88.0214 124.305 85.8398 124.305C83.6582 124.305 81.8898 126.074 81.8898 128.256C81.8898 130.437 83.6582 132.206 85.8398 132.206Z" fill="#7BC678"/>
<path d="M85.8398 82.7356C88.0214 82.7356 89.79 80.9671 89.79 78.7855C89.79 76.6038 88.0214 74.8353 85.8398 74.8353C83.6582 74.8353 81.8898 76.6038 81.8898 78.7855C81.8898 80.9671 83.6582 82.7356 85.8398 82.7356Z" fill="#7BC678"/>
<path d="M85.8398 58.0314C88.0214 58.0314 89.79 56.2628 89.79 54.0812C89.79 51.8996 88.0214 50.1311 85.8398 50.1311C83.6582 50.1311 81.8898 51.8996 81.8898 54.0812C81.8898 56.2628 83.6582 58.0314 85.8398 58.0314Z" fill="#7BC678"/>
<path d="M85.8398 8.622C88.0214 8.622 89.79 6.8535 89.79 4.67188C89.79 2.49026 88.0214 0.72168 85.8398 0.72168C83.6582 0.72168 81.8898 2.49026 81.8898 4.67188C81.8898 6.8535 83.6582 8.622 85.8398 8.622Z" fill="#7BC678"/>
<path d="M113.05 132.206C115.232 132.206 117 130.437 117 128.256C117 126.074 115.232 124.305 113.05 124.305C110.869 124.305 109.1 126.074 109.1 128.256C109.1 130.437 110.869 132.206 113.05 132.206Z" fill="#7BC678"/>
<path d="M113.05 82.7356C115.232 82.7356 117 80.9671 117 78.7855C117 76.6038 115.232 74.8353 113.05 74.8353C110.869 74.8353 109.1 76.6038 109.1 78.7855C109.1 80.9671 110.869 82.7356 113.05 82.7356Z" fill="#7BC678"/>
</svg>
