<svg width="59" height="207" viewBox="0 0 59 207" fill="none" xmlns="http://www.w3.org/2000/svg">
<path d="M-0.0316126 181.8C2.15 181.8 3.91859 180.031 3.91859 177.849C3.91859 175.668 2.15 173.899 -0.0316126 173.899C-2.21323 173.899 -3.98181 175.668 -3.98181 177.849C-3.98181 180.031 -2.21323 181.8 -0.0316126 181.8Z" fill="#FF8345"/>
<path d="M-0.0316126 157.095C2.15 157.095 3.91859 155.327 3.91859 153.145C3.91859 150.964 2.15 149.195 -0.0316126 149.195C-2.21323 149.195 -3.98181 150.964 -3.98181 153.145C-3.98181 155.327 -2.21323 157.095 -0.0316126 157.095Z" fill="#FF8345"/>
<path d="M-0.0316126 107.687C2.15 107.687 3.91859 105.918 3.91859 103.737C3.91859 101.555 2.15 99.7867 -0.0316126 99.7867C-2.21323 99.7867 -3.98181 101.555 -3.98181 103.737C-3.98181 105.918 -2.21323 107.687 -0.0316126 107.687Z" fill="#FF8345"/>
<path d="M-0.0316126 82.9212C2.15 82.9212 3.91859 81.1526 3.91859 78.971C3.91859 76.7894 2.15 75.0209 -0.0316126 75.0209C-2.21323 75.0209 -3.98181 76.7894 -3.98181 78.971C-3.98181 81.1526 -2.21323 82.9212 -0.0316126 82.9212Z" fill="#FF8345"/>
<path d="M-0.0316126 33.5118C2.15 33.5118 3.91859 31.7433 3.91859 29.5616C3.91859 27.38 2.15 25.6115 -0.0316126 25.6115C-2.21323 25.6115 -3.98181 27.38 -3.98181 29.5616C-3.98181 31.7433 -2.21323 33.5118 -0.0316126 33.5118Z" fill="#FF8345"/>
<path d="M27.1816 206.567C29.3632 206.567 31.1318 204.798 31.1318 202.616C31.1318 200.435 29.3632 198.666 27.1816 198.666C25 198.666 23.2316 200.435 23.2316 202.616C23.2316 204.798 25 206.567 27.1816 206.567Z" fill="#FF8345"/>
<path d="M27.1816 181.8C29.3632 181.8 31.1318 180.031 31.1318 177.849C31.1318 175.668 29.3632 173.899 27.1816 173.899C25 173.899 23.2316 175.668 23.2316 177.849C23.2316 180.031 25 181.8 27.1816 181.8Z" fill="#FF8345"/>
<path d="M27.1816 157.095C29.3632 157.095 31.1318 155.327 31.1318 153.145C31.1318 150.964 29.3632 149.195 27.1816 149.195C25 149.195 23.2316 150.964 23.2316 153.145C23.2316 155.327 25 157.095 27.1816 157.095Z" fill="#FF8345"/>
<path d="M27.1816 132.391C29.3632 132.391 31.1318 130.623 31.1318 128.441C31.1318 126.26 29.3632 124.491 27.1816 124.491C25 124.491 23.2316 126.26 23.2316 128.441C23.2316 130.623 25 132.391 27.1816 132.391Z" fill="#FF8345"/>
<path d="M27.1816 82.9212C29.3632 82.9212 31.1318 81.1526 31.1318 78.971C31.1318 76.7894 29.3632 75.0209 27.1816 75.0209C25 75.0209 23.2316 76.7894 23.2316 78.971C23.2316 81.1526 25 82.9212 27.1816 82.9212Z" fill="#FF8345"/>
<path d="M27.1816 58.217C29.3632 58.217 31.1318 56.4484 31.1318 54.2668C31.1318 52.0852 29.3632 50.3167 27.1816 50.3167C25 50.3167 23.2316 52.0852 23.2316 54.2668C23.2316 56.4484 25 58.217 27.1816 58.217Z" fill="#FF8345"/>
<path d="M27.1816 8.80755C29.3632 8.80755 31.1318 7.03904 31.1318 4.85743C31.1318 2.67581 29.3632 0.907227 27.1816 0.907227C25 0.907227 23.2316 2.67581 23.2316 4.85743C23.2316 7.03904 25 8.80755 27.1816 8.80755Z" fill="#FF8345"/>
<path d="M54.3921 181.8C56.5737 181.8 58.3423 180.031 58.3423 177.849C58.3423 175.668 56.5737 173.899 54.3921 173.899C52.2105 173.899 50.4419 175.668 50.4419 177.849C50.4419 180.031 52.2105 181.8 54.3921 181.8Z" fill="#FF8345"/>
<path d="M54.3921 132.391C56.5737 132.391 58.3423 130.623 58.3423 128.441C58.3423 126.26 56.5737 124.491 54.3921 124.491C52.2105 124.491 50.4419 126.26 50.4419 128.441C50.4419 130.623 52.2105 132.391 54.3921 132.391Z" fill="#FF8345"/>
<path d="M54.3921 82.9212C56.5737 82.9212 58.3423 81.1526 58.3423 78.971C58.3423 76.7894 56.5737 75.0209 54.3921 75.0209C52.2105 75.0209 50.4419 76.7894 50.4419 78.971C50.4419 81.1526 52.2105 82.9212 54.3921 82.9212Z" fill="#FF8345"/>
</svg>
