<svg width="118" height="207" viewBox="0 0 118 207" fill="none" xmlns="http://www.w3.org/2000/svg">
<path d="M4.53516 181.589C6.71678 181.589 8.48536 179.82 8.48536 177.639C8.48536 175.457 6.71678 173.688 4.53516 173.688C2.35354 173.688 0.584961 175.457 0.584961 177.639C0.584961 179.82 2.35354 181.589 4.53516 181.589Z" fill="#0AD0AD"/>
<path d="M4.53516 82.7102C6.71678 82.7102 8.48536 80.9416 8.48536 78.76C8.48536 76.5784 6.71678 74.8099 4.53516 74.8099C2.35354 74.8099 0.584961 76.5784 0.584961 78.76C0.584961 80.9416 2.35354 82.7102 4.53516 82.7102Z" fill="#0AD0AD"/>
<path d="M31.7475 206.356C33.9291 206.356 35.6977 204.587 35.6977 202.406C35.6977 200.224 33.9291 198.455 31.7475 198.455C29.5659 198.455 27.7973 200.224 27.7973 202.406C27.7973 204.587 29.5659 206.356 31.7475 206.356Z" fill="#0AD0AD"/>
<path d="M31.7475 181.589C33.9291 181.589 35.6977 179.82 35.6977 177.639C35.6977 175.457 33.9291 173.688 31.7475 173.688C29.5659 173.688 27.7973 175.457 27.7973 177.639C27.7973 179.82 29.5659 181.589 31.7475 181.589Z" fill="#0AD0AD"/>
<path d="M31.7475 132.18C33.9291 132.18 35.6977 130.412 35.6977 128.23C35.6977 126.049 33.9291 124.28 31.7475 124.28C29.5659 124.28 27.7973 126.049 27.7973 128.23C27.7973 130.412 29.5659 132.18 31.7475 132.18Z" fill="#0AD0AD"/>
<path d="M31.7475 58.006C33.9291 58.006 35.6977 56.2374 35.6977 54.0558C35.6977 51.8742 33.9291 50.1057 31.7475 50.1057C29.5659 50.1057 27.7973 51.8742 27.7973 54.0558C27.7973 56.2374 29.5659 58.006 31.7475 58.006Z" fill="#0AD0AD"/>
<path d="M31.7475 33.3008C33.9291 33.3008 35.6977 31.5323 35.6977 29.3507C35.6977 27.1691 33.9291 25.4005 31.7475 25.4005C29.5659 25.4005 27.7973 27.1691 27.7973 29.3507C27.7973 31.5323 29.5659 33.3008 31.7475 33.3008Z" fill="#0AD0AD"/>
<path d="M58.8971 181.589C61.0787 181.589 62.8473 179.82 62.8473 177.639C62.8473 175.457 61.0787 173.688 58.8971 173.688C56.7155 173.688 54.9469 175.457 54.9469 177.639C54.9469 179.82 56.7155 181.589 58.8971 181.589Z" fill="#0AD0AD"/>
<path d="M58.8971 156.885C61.0787 156.885 62.8473 155.116 62.8473 152.934C62.8473 150.753 61.0787 148.984 58.8971 148.984C56.7155 148.984 54.9469 150.753 54.9469 152.934C54.9469 155.116 56.7155 156.885 58.8971 156.885Z" fill="#0AD0AD"/>
<path d="M58.8971 107.476C61.0787 107.476 62.8473 105.708 62.8473 103.526C62.8473 101.344 61.0787 99.5758 58.8971 99.5758C56.7155 99.5758 54.9469 101.344 54.9469 103.526C54.9469 105.708 56.7155 107.476 58.8971 107.476Z" fill="#0AD0AD"/>
<path d="M58.8971 82.7102C61.0787 82.7102 62.8473 80.9416 62.8473 78.76C62.8473 76.5784 61.0787 74.8099 58.8971 74.8099C56.7155 74.8099 54.9469 76.5784 54.9469 78.76C54.9469 80.9416 56.7155 82.7102 58.8971 82.7102Z" fill="#0AD0AD"/>
<path d="M58.8971 33.3008C61.0787 33.3008 62.8473 31.5323 62.8473 29.3507C62.8473 27.1691 61.0787 25.4005 58.8971 25.4005C56.7155 25.4005 54.9469 27.1691 54.9469 29.3507C54.9469 31.5323 56.7155 33.3008 58.8971 33.3008Z" fill="#0AD0AD"/>
<path d="M86.1104 206.356C88.292 206.356 90.0606 204.587 90.0606 202.406C90.0606 200.224 88.292 198.455 86.1104 198.455C83.9287 198.455 82.1603 200.224 82.1603 202.406C82.1603 204.587 83.9287 206.356 86.1104 206.356Z" fill="#0AD0AD"/>
<path d="M86.1104 181.589C88.292 181.589 90.0606 179.82 90.0606 177.639C90.0606 175.457 88.292 173.688 86.1104 173.688C83.9287 173.688 82.1603 175.457 82.1603 177.639C82.1603 179.82 83.9287 181.589 86.1104 181.589Z" fill="#0AD0AD"/>
<path d="M86.1104 156.885C88.292 156.885 90.0606 155.116 90.0606 152.934C90.0606 150.753 88.292 148.984 86.1104 148.984C83.9287 148.984 82.1603 150.753 82.1603 152.934C82.1603 155.116 83.9287 156.885 86.1104 156.885Z" fill="#0AD0AD"/>
<path d="M86.1104 132.18C88.292 132.18 90.0606 130.412 90.0606 128.23C90.0606 126.049 88.292 124.28 86.1104 124.28C83.9287 124.28 82.1603 126.049 82.1603 128.23C82.1603 130.412 83.9287 132.18 86.1104 132.18Z" fill="#0AD0AD"/>
<path d="M86.1104 82.7102C88.292 82.7102 90.0606 80.9416 90.0606 78.76C90.0606 76.5784 88.292 74.8099 86.1104 74.8099C83.9287 74.8099 82.1603 76.5784 82.1603 78.76C82.1603 80.9416 83.9287 82.7102 86.1104 82.7102Z" fill="#0AD0AD"/>
<path d="M86.1104 58.006C88.292 58.006 90.0606 56.2374 90.0606 54.0558C90.0606 51.8742 88.292 50.1057 86.1104 50.1057C83.9287 50.1057 82.1603 51.8742 82.1603 54.0558C82.1603 56.2374 83.9287 58.006 86.1104 58.006Z" fill="#0AD0AD"/>
<path d="M86.1104 8.59661C88.292 8.59661 90.0606 6.82811 90.0606 4.64649C90.0606 2.46487 88.292 0.696289 86.1104 0.696289C83.9287 0.696289 82.1603 2.46487 82.1603 4.64649C82.1603 6.82811 83.9287 8.59661 86.1104 8.59661Z" fill="#0AD0AD"/>
<path d="M113.321 181.589C115.502 181.589 117.271 179.82 117.271 177.639C117.271 175.457 115.502 173.688 113.321 173.688C111.139 173.688 109.371 175.457 109.371 177.639C109.371 179.82 111.139 181.589 113.321 181.589Z" fill="#0AD0AD"/>
<path d="M113.321 132.18C115.502 132.18 117.271 130.412 117.271 128.23C117.271 126.049 115.502 124.28 113.321 124.28C111.139 124.28 109.371 126.049 109.371 128.23C109.371 130.412 111.139 132.18 113.321 132.18Z" fill="#0AD0AD"/>
<path d="M113.321 82.7102C115.502 82.7102 117.271 80.9416 117.271 78.76C117.271 76.5784 115.502 74.8099 113.321 74.8099C111.139 74.8099 109.371 76.5784 109.371 78.76C109.371 80.9416 111.139 82.7102 113.321 82.7102Z" fill="#0AD0AD"/>
</svg>
