<svg width="334" height="269" viewBox="0 0 334 269" fill="none" xmlns="http://www.w3.org/2000/svg">
<path d="M366.98 45.9936C366.98 45.9936 313.975 77.9982 287.522 75.4001C256.195 72.3167 227.547 12.3475 159.383 23.7944C91.2185 35.2413 69.13 5.38015 83.5462 -39.8576" stroke="#ffa97d" stroke-miterlimit="10"/>
<path d="M420.875 79.4704C420.875 79.4704 352.861 120.537 318.918 117.203C278.72 113.247 241.961 36.2974 154.496 50.9855C67.0306 65.6736 38.6878 27.3573 57.1859 -30.6895" stroke="#ffa97d" stroke-miterlimit="10"/>
<path d="M-33.7504 258.818C-33.7504 258.818 19.2547 226.813 45.7079 229.411C77.0353 232.495 105.683 292.464 173.847 281.017C242.012 269.57 264.1 299.431 249.684 344.669" stroke="#ffa97d" stroke-miterlimit="10"/>
<path d="M-87.6445 225.341C-87.6445 225.341 -19.631 184.274 14.3124 187.608C54.5101 191.565 91.2692 268.514 178.734 253.826C266.199 239.138 294.542 277.454 276.044 335.501" stroke="#ffa97d" stroke-miterlimit="10"/>
</svg>
