<svg width="201" height="249" viewBox="0 0 201 249" fill="none" xmlns="http://www.w3.org/2000/svg">
<path d="M14.7997 176.991C16.9114 177.911 19.3687 176.944 20.2882 174.833C21.2077 172.721 20.2411 170.264 18.1293 169.344C16.0176 168.425 13.5602 169.391 12.6408 171.503C11.7213 173.615 12.6879 176.072 14.7997 176.991Z" fill="#E7B44D"/>
<path d="M56.4731 81.2784C58.5849 82.1979 61.0422 81.2313 61.9617 79.1195C62.8812 77.0078 61.9146 74.5505 59.8028 73.631C57.691 72.7116 55.2337 73.6781 54.3142 75.7898C53.3948 77.9016 54.3614 80.359 56.4731 81.2784Z" fill="#E7B44D"/>
<path d="M30.7025 212.435C32.8143 213.355 35.2716 212.388 36.191 210.276C37.1105 208.164 36.1439 205.707 34.0322 204.788C31.9204 203.868 29.463 204.835 28.5436 206.947C27.6241 209.058 28.5907 211.516 30.7025 212.435Z" fill="#E7B44D"/>
<path d="M41.141 188.46C43.2527 189.38 45.7101 188.413 46.6295 186.302C47.549 184.19 46.5824 181.733 44.4706 180.813C42.3589 179.894 39.9015 180.86 38.9821 182.972C38.0626 185.084 39.0292 187.541 41.141 188.46Z" fill="#E7B44D"/>
<path d="M61.9644 140.634C64.0761 141.554 66.5335 140.587 67.4529 138.476C68.3724 136.364 67.4058 133.906 65.2941 132.987C63.1823 132.068 60.725 133.034 59.8055 135.146C58.886 137.258 59.8526 139.715 61.9644 140.634Z" fill="#E7B44D"/>
<path d="M93.2263 68.8338C95.3381 69.7533 97.7954 68.7867 98.7149 66.675C99.6343 64.5632 98.6677 62.1059 96.556 61.1865C94.4442 60.267 91.9869 61.2335 91.0674 63.3453C90.148 65.457 91.1145 67.9144 93.2263 68.8338Z" fill="#E7B44D"/>
<path d="M103.638 44.9203C105.75 45.8397 108.207 44.8732 109.127 42.7615C110.046 40.6497 109.08 38.1923 106.968 37.2729C104.856 36.3534 102.399 37.32 101.479 39.4318C100.56 41.5435 101.527 44.0008 103.638 44.9203Z" fill="#E7B44D"/>
<path d="M67.4212 199.903C69.533 200.822 71.9903 199.856 72.9098 197.744C73.8293 195.632 72.8627 193.175 70.7509 192.255C68.6391 191.336 66.1818 192.303 65.2623 194.414C64.3429 196.526 65.3095 198.983 67.4212 199.903Z" fill="#E7B44D"/>
<path d="M77.8332 175.989C79.9449 176.909 82.4023 175.942 83.3217 173.831C84.2412 171.719 83.2746 169.261 81.1628 168.342C79.0511 167.423 76.5937 168.389 75.6743 170.501C74.7548 172.613 75.7214 175.07 77.8332 175.989Z" fill="#E7B44D"/>
<path d="M98.6566 128.163C100.768 129.083 103.226 128.116 104.145 126.004C105.065 123.893 104.098 121.435 101.986 120.516C99.8745 119.596 97.4172 120.563 96.4977 122.675C95.5783 124.787 96.5448 127.244 98.6566 128.163Z" fill="#E7B44D"/>
<path d="M109.096 104.19C111.207 105.11 113.665 104.143 114.584 102.031C115.504 99.9195 114.537 97.4622 112.425 96.5428C110.314 95.6233 107.856 96.5898 106.937 98.7016C106.017 100.813 106.984 103.271 109.096 104.19Z" fill="#E7B44D"/>
<path d="M129.919 56.3628C132.03 57.2822 134.488 56.3157 135.407 54.204C136.327 52.0922 135.36 49.6349 133.248 48.7154C131.136 47.7959 128.679 48.7625 127.76 50.8743C126.84 52.986 127.807 55.4433 129.919 56.3628Z" fill="#E7B44D"/>
<path d="M83.3239 235.346C85.4356 236.266 87.893 235.299 88.8124 233.188C89.7319 231.076 88.7653 228.618 86.6535 227.699C84.5418 226.78 82.0846 227.746 81.1651 229.858C80.2456 231.97 81.2121 234.427 83.3239 235.346Z" fill="#E7B44D"/>
<path d="M93.7623 211.372C95.8741 212.291 98.3314 211.325 99.2509 209.213C100.17 207.101 99.2038 204.644 97.092 203.724C94.9802 202.805 92.523 203.772 91.6036 205.883C90.6841 207.995 91.6506 210.452 93.7623 211.372Z" fill="#E7B44D"/>
<path d="M104.174 187.458C106.286 188.378 108.743 187.411 109.663 185.299C110.582 183.188 109.616 180.73 107.504 179.811C105.392 178.891 102.935 179.858 102.016 181.97C101.096 184.082 102.063 186.539 104.174 187.458Z" fill="#E7B44D"/>
<path d="M114.586 163.546C116.698 164.465 119.155 163.499 120.074 161.387C120.994 159.275 120.027 156.818 117.915 155.898C115.804 154.979 113.346 155.945 112.427 158.057C111.508 160.169 112.474 162.626 114.586 163.546Z" fill="#E7B44D"/>
<path d="M135.436 115.659C137.548 116.578 140.005 115.612 140.924 113.5C141.844 111.388 140.877 108.931 138.765 108.011C136.654 107.092 134.197 108.058 133.277 110.17C132.358 112.282 133.324 114.739 135.436 115.659Z" fill="#E7B44D"/>
<path d="M145.848 91.7452C147.96 92.6646 150.417 91.698 151.336 89.5863C152.256 87.4745 151.289 85.0172 149.177 84.0978C147.066 83.1783 144.608 84.1449 143.689 86.2566C142.77 88.3684 143.736 90.8257 145.848 91.7452Z" fill="#E7B44D"/>
<path d="M166.672 43.9181C168.783 44.8376 171.241 43.8711 172.16 41.7593C173.08 39.6475 172.113 37.1902 170.001 36.2707C167.889 35.3513 165.432 36.3179 164.513 38.4297C163.593 40.5415 164.56 42.9987 166.672 43.9181Z" fill="#E7B44D"/>
<path d="M120.103 222.84C122.215 223.76 124.672 222.793 125.591 220.682C126.511 218.57 125.544 216.113 123.432 215.193C121.321 214.274 118.863 215.24 117.944 217.352C117.024 219.464 117.991 221.921 120.103 222.84Z" fill="#E7B44D"/>
<path d="M140.926 175.014C143.038 175.934 145.495 174.967 146.415 172.856C147.334 170.744 146.368 168.286 144.256 167.367C142.144 166.448 139.687 167.414 138.767 169.526C137.848 171.638 138.814 174.095 140.926 175.014Z" fill="#E7B44D"/>
<path d="M161.776 127.127C163.888 128.047 166.345 127.08 167.265 124.968C168.184 122.857 167.218 120.399 165.106 119.48C162.994 118.56 160.537 119.527 159.617 121.639C158.698 123.75 159.664 126.208 161.776 127.127Z" fill="#E7B44D"/>
</svg>
