<svg width="33" height="33" viewBox="0 0 33 33" fill="none" xmlns="http://www.w3.org/2000/svg">
<path d="M15.2715 12.0459C14.959 12.3584 14.9902 12.8271 15.2715 13.1396L19.0527 16.7021H10.084C9.64648 16.7021 9.33398 17.0459 9.33398 17.4521V18.4521C9.33398 18.8896 9.64648 19.2021 10.084 19.2021H19.0527L15.2715 22.7959C14.9902 23.1084 14.9902 23.5771 15.2715 23.8896L15.959 24.5771C16.2715 24.8584 16.7402 24.8584 17.0215 24.5771L23.1152 18.4834C23.3965 18.2021 23.3965 17.7334 23.1152 17.4209L17.0215 11.3584C16.7402 11.0771 16.2715 11.0771 15.959 11.3584L15.2715 12.0459Z" fill="#183B56"/>
</svg>
