<svg width="50" height="33" viewBox="0 0 50 33" fill="none" xmlns="http://www.w3.org/2000/svg">
<path fill-rule="evenodd" clip-rule="evenodd" d="M49.5 16.5042C49.5 16.0401 49.3156 15.595 48.9874 15.2668C48.6592 14.9386 48.2141 14.7542 47.75 14.7542H6.47445L17.489 3.74322C17.6517 3.58051 17.7807 3.38735 17.8688 3.17476C17.9568 2.96217 18.0022 2.73432 18.0022 2.50422C18.0022 2.27411 17.9568 2.04626 17.8688 1.83368C17.7807 1.62109 17.6517 1.42792 17.489 1.26522C17.3262 1.10251 17.1331 0.973443 16.9205 0.885386C16.7079 0.797329 16.4801 0.752007 16.25 0.752007C16.0198 0.752007 15.792 0.797329 15.5794 0.885386C15.3668 0.973443 15.1737 1.10251 15.011 1.26522L1.01095 15.2652C0.847983 15.4278 0.718683 15.6209 0.630461 15.8335C0.542238 16.0461 0.496826 16.274 0.496826 16.5042C0.496826 16.7344 0.542238 16.9623 0.630461 17.1749C0.718683 17.3875 0.847983 17.5807 1.01095 17.7432L15.011 31.7432C15.1737 31.9059 15.3668 32.035 15.5794 32.123C15.792 32.2111 16.0198 32.2564 16.25 32.2564C16.4801 32.2564 16.7079 32.2111 16.9205 32.123C17.1331 32.035 17.3262 31.9059 17.489 31.7432C17.6517 31.5805 17.7807 31.3873 17.8688 31.1748C17.9568 30.9622 18.0022 30.7343 18.0022 30.5042C18.0022 30.2741 17.9568 30.0463 17.8688 29.8337C17.7807 29.6211 17.6517 29.4279 17.489 29.2652L6.47445 18.2542H47.75C48.2141 18.2542 48.6592 18.0698 48.9874 17.7417C49.3156 17.4135 49.5 16.9683 49.5 16.5042Z" fill="#183B56"/>
</svg>
