<svg width="36" height="23" viewBox="0 0 36 23" fill="none" xmlns="http://www.w3.org/2000/svg">
<path fill-rule="evenodd" clip-rule="evenodd" d="M0.49868 11.5045C0.49868 11.1729 0.630375 10.855 0.864796 10.6206C1.09922 10.3862 1.41716 10.2545 1.74868 10.2545H31.2312L23.3637 2.38946C23.2475 2.27324 23.1553 2.13527 23.0924 1.98342C23.0295 1.83157 22.9971 1.66882 22.9971 1.50446C22.9971 1.3401 23.0295 1.17735 23.0924 1.0255C23.1553 0.873656 23.2475 0.735682 23.3637 0.619463C23.4799 0.503243 23.6179 0.411053 23.7697 0.348155C23.9216 0.285257 24.0843 0.252884 24.2487 0.252884C24.413 0.252884 24.5758 0.285257 24.7276 0.348155C24.8795 0.411053 25.0175 0.503243 25.1337 0.619463L35.1337 10.6195C35.2501 10.7356 35.3424 10.8735 35.4055 11.0254C35.4685 11.1772 35.5009 11.34 35.5009 11.5045C35.5009 11.6689 35.4685 11.8317 35.4055 11.9835C35.3424 12.1354 35.2501 12.2733 35.1337 12.3895L25.1337 22.3895C25.0175 22.5057 24.8795 22.5979 24.7276 22.6608C24.5758 22.7237 24.413 22.756 24.2487 22.756C24.0843 22.756 23.9216 22.7237 23.7697 22.6608C23.6179 22.5979 23.4799 22.5057 23.3637 22.3895C23.2475 22.2732 23.1553 22.1353 23.0924 21.9834C23.0295 21.8316 22.9971 21.6688 22.9971 21.5045C22.9971 21.3401 23.0295 21.1774 23.0924 21.0255C23.1553 20.8737 23.2475 20.7357 23.3637 20.6195L31.2312 12.7545H1.74868C1.41716 12.7545 1.09922 12.6228 0.864796 12.3883C0.630375 12.1539 0.49868 11.836 0.49868 11.5045Z" fill="#183B56"/>
</svg>
