<svg width="28" height="28" viewBox="0 0 28 28" fill="none" xmlns="http://www.w3.org/2000/svg">
<path fill-rule="evenodd" clip-rule="evenodd" d="M19.4398 27.2455H8.5465C3.83984 27.2455 0.666504 24.2175 0.666504 19.6988V8.1388C0.666504 3.6188 3.83984 0.578796 8.5465 0.578796H19.4398C24.1598 0.578796 27.3332 3.6188 27.3332 8.1388V19.6988C27.3332 24.2175 24.1598 27.2455 19.4398 27.2455ZM17.0265 12.9121H8.55984C7.99984 12.9121 7.55984 13.3655 7.55984 13.9121C7.55984 14.4721 7.99984 14.9121 8.55984 14.9121H17.0265L13.7198 18.2055C13.5332 18.3921 13.4265 18.6588 13.4265 18.9121C13.4265 19.1641 13.5332 19.4188 13.7198 19.6188C14.1065 20.0055 14.7465 20.0055 15.1332 19.6188L20.1598 14.6188C20.5332 14.2455 20.5332 13.5788 20.1598 13.2055L15.1332 8.20546C14.7465 7.8188 14.1065 7.8188 13.7198 8.20546C13.3332 8.60546 13.3332 9.23213 13.7198 9.63213L17.0265 12.9121Z" fill="#7BC678"/>
</svg>
