<svg width="20" height="21" viewBox="0 0 20 21" fill="none" xmlns="http://www.w3.org/2000/svg">
<path fill-rule="evenodd" clip-rule="evenodd" d="M6.39176 2.58948H13.6168C16.4418 2.58948 18.3334 4.57281 18.3334 7.52281V14.332C18.3334 17.2728 16.4418 19.2561 13.6168 19.2561H6.39176C3.56676 19.2561 1.66676 17.2728 1.66676 14.332V7.52281C1.66676 4.57281 3.56676 2.58948 6.39176 2.58948ZM9.52502 13.4145L13.4834 9.45612C13.7667 9.17279 13.7667 8.71446 13.4834 8.42279C13.2 8.13946 12.7334 8.13946 12.45 8.42279L9.00836 11.8645L7.55002 10.4061C7.26669 10.1228 6.80002 10.1228 6.51669 10.4061C6.23336 10.6895 6.23336 11.1478 6.51669 11.4395L8.50002 13.4145C8.64169 13.5561 8.82502 13.6228 9.00836 13.6228C9.20002 13.6228 9.38336 13.5561 9.52502 13.4145Z" fill="#FF8345"/>
</svg>
