<svg width="41" height="41" viewBox="0 0 41 41" fill="none" xmlns="http://www.w3.org/2000/svg">
<path fill-rule="evenodd" clip-rule="evenodd" d="M37.1314 26.0266C36.4823 25.2244 35.6643 24.5645 34.7314 24.1009V20.9525C34.7314 12.7787 28.5052 6.60093 20.3314 6.60093C12.1576 6.60093 5.93143 12.7787 5.93143 20.9525V24.1009C4.99861 24.5645 4.18058 25.2244 3.53143 26.0266V20.9525C3.53143 11.4532 10.8321 4.20093 20.3314 4.20093C29.8307 4.20093 37.1314 11.4532 37.1314 20.9525V26.0266ZM8.40238 24.9995C8.35593 25.2434 8.33162 25.4951 8.33162 25.7525V35.3525C8.33162 35.6099 8.35593 35.8616 8.40238 36.1054C5.65413 35.748 3.53162 33.3981 3.53162 30.5525C3.53162 27.7068 5.65413 25.3569 8.40238 24.9995ZM32.3319 35.3525C32.3319 35.6099 32.3076 35.8616 32.2612 36.1054C35.0094 35.748 37.1319 33.3981 37.1319 30.5525C37.1319 27.7068 35.0094 25.3569 32.2612 24.9995C32.3076 25.2434 32.3319 25.4951 32.3319 25.7525V35.3525Z" fill="#FF8345"/>
<path fill-rule="evenodd" clip-rule="evenodd" d="M13.9321 23.3518H12.3321C11.0066 23.3518 9.93213 24.4263 9.93213 25.7518V35.3518C9.93213 36.6773 11.0066 37.7518 12.3321 37.7518H13.9321C15.2576 37.7518 16.3321 36.6773 16.3321 35.3518V25.7518C16.3321 24.4263 15.2576 23.3518 13.9321 23.3518ZM28.3318 23.3519H26.7318C25.4063 23.3519 24.3318 24.4265 24.3318 25.7519V35.3519C24.3318 36.6774 25.4063 37.7519 26.7318 37.7519H28.3318C29.6573 37.7519 30.7318 36.6774 30.7318 35.3519V25.7519C30.7318 24.4265 29.6573 23.3519 28.3318 23.3519Z" fill="#FF8345"/>
</svg>
