<svg width="15" height="15" viewBox="0 0 15 15" fill="none" xmlns="http://www.w3.org/2000/svg">
<path opacity="0.6" d="M7.33331 3.88318C5.33331 3.88318 3.73956 5.50818 3.73956 7.47693C3.73956 9.47693 5.33331 11.0707 7.33331 11.0707C9.30206 11.0707 10.9271 9.47693 10.9271 7.47693C10.9271 5.50818 9.30206 3.88318 7.33331 3.88318ZM7.33331 9.82068C6.05206 9.82068 4.98956 8.78943 4.98956 7.47693C4.98956 6.19568 6.02081 5.16443 7.33331 5.16443C8.61456 5.16443 9.64581 6.19568 9.64581 7.47693C9.64581 8.78943 8.61456 9.82068 7.33331 9.82068ZM11.8958 3.75818C11.8958 3.28943 11.5208 2.91443 11.0521 2.91443C10.5833 2.91443 10.2083 3.28943 10.2083 3.75818C10.2083 4.22693 10.5833 4.60193 11.0521 4.60193C11.5208 4.60193 11.8958 4.22693 11.8958 3.75818ZM14.2708 4.60193C14.2083 3.47693 13.9583 2.47693 13.1458 1.66443C12.3333 0.851929 11.3333 0.601929 10.2083 0.539429C9.05206 0.476929 5.58331 0.476929 4.42706 0.539429C3.30206 0.601929 2.33331 0.851929 1.48956 1.66443C0.677063 2.47693 0.427063 3.47693 0.364563 4.60193C0.302063 5.75818 0.302063 9.22693 0.364563 10.3832C0.427063 11.5082 0.677063 12.4769 1.48956 13.3207C2.33331 14.1332 3.30206 14.3832 4.42706 14.4457C5.58331 14.5082 9.05206 14.5082 10.2083 14.4457C11.3333 14.3832 12.3333 14.1332 13.1458 13.3207C13.9583 12.4769 14.2083 11.5082 14.2708 10.3832C14.3333 9.22693 14.3333 5.75818 14.2708 4.60193ZM12.7708 11.6019C12.5521 12.2269 12.0521 12.6957 11.4583 12.9457C10.5208 13.3207 8.33331 13.2269 7.33331 13.2269C6.30206 13.2269 4.11456 13.3207 3.20831 12.9457C2.58331 12.6957 2.11456 12.2269 1.86456 11.6019C1.48956 10.6957 1.58331 8.50818 1.58331 7.47693C1.58331 6.47693 1.48956 4.28943 1.86456 3.35193C2.11456 2.75818 2.58331 2.28943 3.20831 2.03943C4.11456 1.66443 6.30206 1.75818 7.33331 1.75818C8.33331 1.75818 10.5208 1.66443 11.4583 2.03943C12.0521 2.25818 12.5208 2.75818 12.7708 3.35193C13.1458 4.28943 13.0521 6.47693 13.0521 7.47693C13.0521 8.50818 13.1458 10.6957 12.7708 11.6019Z" fill="#183B56"/>
</svg>
