<svg width="15" height="15" viewBox="0 0 15 15" fill="none" xmlns="http://www.w3.org/2000/svg">
<path opacity="0.6" d="M13.3333 0.476929H1.30206C0.770813 0.476929 0.333313 0.945679 0.333313 1.50818V13.4769C0.333313 14.0394 0.770813 14.4769 1.30206 14.4769H13.3333C13.8646 14.4769 14.3333 14.0394 14.3333 13.4769V1.50818C14.3333 0.945679 13.8646 0.476929 13.3333 0.476929ZM4.55206 12.4769H2.48956V5.82068H4.55206V12.4769ZM3.52081 4.88318C2.83331 4.88318 2.30206 4.35193 2.30206 3.69568C2.30206 3.03943 2.83331 2.47693 3.52081 2.47693C4.17706 2.47693 4.70831 3.03943 4.70831 3.69568C4.70831 4.35193 4.17706 4.88318 3.52081 4.88318ZM12.3333 12.4769H10.2396V9.22693C10.2396 8.47693 10.2396 7.47693 9.17706 7.47693C8.08331 7.47693 7.92706 8.32068 7.92706 9.19568V12.4769H5.86456V5.82068H7.83331V6.72693H7.86456C8.14581 6.19568 8.83331 5.63318 9.83331 5.63318C11.9271 5.63318 12.3333 7.03943 12.3333 8.82068V12.4769Z" fill="#183B56"/>
</svg>
