<svg width="20" height="21" viewBox="0 0 20 21" fill="none" xmlns="http://www.w3.org/2000/svg">
<path d="M11.0437 2.60901C11.25 2.60901 11.4233 2.78401 11.4233 2.99234V5.67568C11.4233 7.20068 12.6609 8.45068 14.179 8.45901C14.7979 8.45901 15.2929 8.46734 15.6724 8.46734C15.9282 8.46734 16.349 8.45901 16.7038 8.45901C16.9101 8.45901 17.0833 8.62568 17.0833 8.83401V15.534C17.0833 17.6007 15.4167 19.2757 13.3705 19.2757H6.81106C4.6576 19.2757 2.91667 17.5173 2.91667 15.3507V6.36734C2.91667 4.30068 4.57509 2.60901 6.63779 2.60901H11.0437ZM9.69885 8.22568C9.61634 8.22568 9.53383 8.24234 9.45958 8.27568C9.38532 8.30901 9.31931 8.35068 9.26156 8.40901L6.90182 10.809C6.66255 11.0507 6.66255 11.4423 6.90182 11.684C7.14109 11.9257 7.52888 11.9257 7.76816 11.684L9.08004 10.3507V14.3757C9.08004 14.7173 9.35232 14.9923 9.69885 14.9923C10.0371 14.9923 10.3094 14.7173 10.3094 14.3757V10.3507L11.6213 11.684C11.8606 11.9257 12.2484 11.9257 12.4876 11.684C12.7352 11.4423 12.7352 11.0507 12.4959 10.809L10.1279 8.40901C10.0701 8.35068 10.0041 8.30901 9.92987 8.27568C9.85562 8.24234 9.78136 8.22568 9.69885 8.22568ZM12.621 3.36401C12.621 3.00484 13.0517 2.82651 13.2984 3.08568C14.1912 4.02234 15.7498 5.65984 16.621 6.57484C16.8611 6.82734 16.6846 7.24651 16.3372 7.24734C15.659 7.24984 14.8603 7.24734 14.2852 7.24151C13.3727 7.24151 12.621 6.48234 12.621 5.56068V3.36401Z" fill="#FF8345"/>
</svg>
