<svg width="40" height="41" viewBox="0 0 40 41" fill="none" xmlns="http://www.w3.org/2000/svg">
<rect y="0.912109" width="40" height="40" rx="20" fill="#BB6BD9"/>
<path d="M14.75 11.5C15.3081 11.5 15.8608 11.6099 16.3764 11.8235C16.892 12.0371 17.3606 12.3501 17.7552 12.7448C18.1499 13.1394 18.4629 13.608 18.6765 14.1236C18.8901 14.6392 19 15.1919 19 15.75V20H14.75C13.6228 20 12.5418 19.5522 11.7448 18.7552C10.9478 17.9582 10.5 16.8772 10.5 15.75C10.5 14.6228 10.9478 13.5418 11.7448 12.7448C12.5418 11.9478 13.6228 11.5 14.75 11.5ZM14.75 22H19V26.25C19 27.0906 18.7507 27.9123 18.2837 28.6112C17.8168 29.3101 17.153 29.8548 16.3764 30.1765C15.5998 30.4982 14.7453 30.5823 13.9209 30.4183C13.0964 30.2543 12.3392 29.8496 11.7448 29.2552C11.1504 28.6608 10.7457 27.9036 10.5817 27.0791C10.4177 26.2547 10.5018 25.4002 10.8235 24.6236C11.1452 23.847 11.6899 23.1833 12.3888 22.7163C13.0877 22.2493 13.9094 22 14.75 22ZM25.25 11.5C26.3772 11.5 27.4582 11.9478 28.2552 12.7448C29.0522 13.5418 29.5 14.6228 29.5 15.75C29.5 16.8772 29.0522 17.9582 28.2552 18.7552C27.4582 19.5522 26.3772 20 25.25 20H21V15.75C21 14.6228 21.4478 13.5418 22.2448 12.7448C23.0418 11.9478 24.1228 11.5 25.25 11.5ZM21 22H25.25C26.0906 22 26.9123 22.2493 27.6112 22.7163C28.3101 23.1833 28.8548 23.847 29.1765 24.6236C29.4982 25.4002 29.5823 26.2547 29.4183 27.0791C29.2544 27.9036 28.8496 28.6608 28.2552 29.2552C27.6608 29.8496 26.9036 30.2543 26.0791 30.4183C25.2547 30.5823 24.4002 30.4982 23.6236 30.1765C22.847 29.8548 22.1833 29.3101 21.7163 28.6112C21.2493 27.9123 21 27.0906 21 26.25V22Z" fill="white"/>
</svg>
