<svg width="101" height="88" viewBox="0 0 101 88" fill="none" xmlns="http://www.w3.org/2000/svg">
<path d="M91.3081 44.0264H75.6831V31.5264C75.6831 24.6904 81.1518 19.0264 88.1831 19.0264H89.7456C92.2846 19.0264 94.4331 17.0732 94.4331 14.3389V4.96387C94.4331 2.4248 92.2846 0.276367 89.7456 0.276367H88.1831C70.8003 0.276367 56.9331 14.3389 56.9331 31.5264V78.4014C56.9331 83.6748 61.0346 87.7764 66.3081 87.7764H91.3081C96.3862 87.7764 100.683 83.6748 100.683 78.4014V53.4014C100.683 48.3232 96.3862 44.0264 91.3081 44.0264ZM35.0581 44.0264H19.4331V31.5264C19.4331 24.6904 24.9018 19.0264 31.9331 19.0264H33.4956C36.0346 19.0264 38.1831 17.0732 38.1831 14.3389V4.96387C38.1831 2.4248 36.0346 0.276367 33.4956 0.276367H31.9331C14.5503 0.276367 0.683079 14.3389 0.683079 31.5264V78.4014C0.683079 83.6748 4.78464 87.7764 10.0581 87.7764H35.0581C40.1362 87.7764 44.4331 83.6748 44.4331 78.4014V53.4014C44.4331 48.3232 40.1362 44.0264 35.0581 44.0264Z" fill="#183B56"/>
</svg>
