<svg width="25" height="27" viewBox="0 0 25 27" fill="none" xmlns="http://www.w3.org/2000/svg">
<path d="M11.9463 26.4083C12.3383 26.6176 12.8303 26.6163 13.2223 26.407C23.9049 20.6683 24.6636 9.45631 24.6543 6.26831C24.6533 6.01208 24.5775 5.76171 24.4364 5.54786C24.2953 5.33401 24.0948 5.16597 23.8596 5.06431L13.1263 0.309641C12.9555 0.234347 12.7708 0.195572 12.5841 0.195802C12.3975 0.196031 12.2129 0.235261 12.0423 0.310975L1.38361 5.06564C1.15187 5.16736 0.95426 5.33355 0.814314 5.54441C0.674368 5.75527 0.597989 6.00192 0.594277 6.25497C0.548944 9.42697 1.18761 20.663 11.9463 26.4083ZM8.19428 11.127L11.2516 14.1843L16.9756 8.46031L18.8609 10.3456L11.2516 17.955L6.30894 13.0123L8.19428 11.127Z" fill="#7BC678"/>
</svg>
