<svg width="20" height="21" viewBox="0 0 20 21" fill="none" xmlns="http://www.w3.org/2000/svg">
<path fill-rule="evenodd" clip-rule="evenodd" d="M1.66667 9.82418C1.66667 5.83396 4.86696 2.59924 8.8147 2.59924C10.7105 2.59924 12.5286 3.36044 13.8691 4.71538C15.2096 6.07032 15.9627 7.90801 15.9627 9.82418C15.9627 13.8144 12.7625 17.0491 8.8147 17.0491C4.86696 17.0491 1.66667 13.8144 1.66667 9.82418ZM15.8445 15.6445L17.9734 17.3629H18.0103C18.441 17.7983 18.441 18.5041 18.0103 18.9394C17.5796 19.3748 16.8813 19.3748 16.4506 18.9394L14.6839 16.9147C14.5169 16.7464 14.423 16.5179 14.423 16.2796C14.423 16.0413 14.5169 15.8127 14.6839 15.6445C15.006 15.3246 15.5224 15.3246 15.8445 15.6445Z" fill="#FF8345"/>
</svg>
