<svg width="17" height="13" viewBox="0 0 17 13" fill="none" xmlns="http://www.w3.org/2000/svg">
<path opacity="0.6" d="M14.6771 3.22693C15.3021 2.75818 15.8646 2.19568 16.3021 1.53943C15.7396 1.78943 15.0833 1.97693 14.4271 2.03943C15.1146 1.63318 15.6146 1.00818 15.8646 0.226929C15.2396 0.601929 14.5208 0.883179 13.8021 1.03943C13.1771 0.383179 12.3333 0.00817871 11.3958 0.00817871C9.58331 0.00817871 8.11456 1.47693 8.11456 3.28943C8.11456 3.53943 8.14581 3.78943 8.20831 4.03943C5.48956 3.88318 3.05206 2.57068 1.42706 0.601929C1.14581 1.07068 0.989563 1.63318 0.989563 2.25818C0.989563 3.38318 1.55206 4.38318 2.45831 4.97693C1.92706 4.94568 1.39581 4.82068 0.958313 4.57068V4.60193C0.958313 6.19568 2.08331 7.50818 3.58331 7.82068C3.33331 7.88318 3.02081 7.94568 2.73956 7.94568C2.52081 7.94568 2.33331 7.91443 2.11456 7.88318C2.52081 9.19568 3.73956 10.1332 5.17706 10.1644C4.05206 11.0394 2.64581 11.5707 1.11456 11.5707C0.833313 11.5707 0.583313 11.5394 0.333313 11.5082C1.77081 12.4457 3.48956 12.9769 5.36456 12.9769C11.3958 12.9769 14.6771 8.00818 14.6771 3.66443C14.6771 3.50818 14.6771 3.38318 14.6771 3.22693Z" fill="#183B56"/>
</svg>
