<svg width="40" height="41" viewBox="0 0 40 41" fill="none" xmlns="http://www.w3.org/2000/svg">
<rect y="0.912109" width="40" height="40" rx="20" fill="#FAAD13"/>
<path d="M29.54 14.0721C29.3942 13.9735 29.225 13.9151 29.0494 13.9028C28.8738 13.8905 28.6981 13.9248 28.54 14.0021C25.8367 15.1311 22.9292 15.6894 20 15.6421C17.0573 15.695 14.1357 15.1365 11.42 14.0021C11.2619 13.9248 11.0862 13.8905 10.9106 13.9028C10.735 13.9151 10.5658 13.9735 10.42 14.0721C10.2866 14.167 10.1785 14.2933 10.1053 14.4398C10.032 14.5862 9.99589 14.7484 10 14.9121V26.9121C10.0003 27.0794 10.0425 27.244 10.1229 27.3908C10.2033 27.5375 10.3192 27.6618 10.46 27.7521C10.6058 27.8508 10.775 27.9092 10.9506 27.9215C11.1262 27.9338 11.3019 27.8995 11.46 27.8221C14.1634 26.6932 17.0708 26.1348 20 26.1821C22.9427 26.1293 25.8643 26.6877 28.58 27.8221C28.7124 27.8805 28.8553 27.9111 29 27.9121C29.1916 27.9116 29.3791 27.8561 29.54 27.7521C29.6808 27.6618 29.7967 27.5375 29.8771 27.3908C29.9575 27.244 29.9997 27.0794 30 26.9121V14.9121C29.9997 14.7448 29.9575 14.5802 29.8771 14.4335C29.7967 14.2867 29.6808 14.1625 29.54 14.0721ZM28 25.4321C25.42 24.5795 22.7172 24.1572 20 24.1821C17.2828 24.1572 14.5801 24.5795 12 25.4321V16.4321C14.5801 17.2848 17.2828 17.7071 20 17.6821C22.7172 17.7071 25.42 17.2848 28 16.4321V25.4321Z" fill="white"/>
</svg>
